<svg width="540" height="525" viewBox="0 0 540 525" fill="none" xmlns="http://www.w3.org/2000/svg">
<path d="M125.187 397.313L167 331.192L73.3587 271.313L25 347.787L102.453 397.313H125.187V397.313Z" fill="#F0F0F0"/>
<path fill-rule="evenodd" clip-rule="evenodd" d="M80 416.313H183V396.313H80V416.313ZM181.662 415.023H81.3377V397.604H181.662V415.023Z" fill="#3F3D56"/>
<path d="M171.5 413.313C175.09 413.313 178 410.403 178 406.813C178 403.224 175.09 400.313 171.5 400.313C167.91 400.313 165 403.224 165 406.813C165 410.403 167.91 413.313 171.5 413.313Z" fill="#222F65"/>
<path d="M151.5 413.313C155.09 413.313 158 410.403 158 406.813C158 403.224 155.09 400.313 151.5 400.313C147.91 400.313 145 403.224 145 406.813C145 410.403 147.91 413.313 151.5 413.313Z" fill="#222F65"/>
<path d="M133.5 413.313C137.09 413.313 140 410.403 140 406.813C140 403.224 137.09 400.313 133.5 400.313C129.91 400.313 127 403.224 127 406.813C127 410.403 129.91 413.313 133.5 413.313Z" fill="#222F65"/>
<path d="M114.5 413.313C118.09 413.313 121 410.403 121 406.813C121 403.224 118.09 400.313 114.5 400.313C110.91 400.313 108 403.224 108 406.813C108 410.403 110.91 413.313 114.5 413.313Z" fill="#222F65"/>
<path d="M95.5 413.313C99.0899 413.313 102 410.403 102 406.813C102 403.224 99.0899 400.313 95.5 400.313C91.9101 400.313 89 403.224 89 406.813C89 410.403 91.9101 413.313 95.5 413.313Z" fill="#222F65"/>
<path d="M307.462 185.254V134.179H333V109.313H208V234.313H314.855V222.092C314.855 217.491 316.683 213.078 319.936 209.825C323.19 206.571 327.602 204.744 332.203 204.744H333V185.254H307.462Z" fill="#F0F0F0"/>
<rect x="47.6495" y="9.91882" width="41" height="41" transform="rotate(-14 47.6495 9.91882)" fill="#F0F0F0"/>
<rect x="362" y="432.313" width="84" height="17" fill="#222F65"/>
<rect x="340" y="346.313" width="123" height="16" fill="#F0F0F0"/>
<rect y="523.313" width="524" height="1" fill="#3F3D56"/>
<path fill-rule="evenodd" clip-rule="evenodd" d="M331.035 524.313H483.965C493.921 524.302 501.989 516.238 502 506.287V222.34C501.989 212.389 493.921 204.325 483.965 204.313H331.035C321.079 204.325 313.011 212.389 313 222.34V506.287C313.011 516.238 321.079 524.302 331.035 524.313ZM314.345 222.34C314.356 213.131 321.822 205.668 331.035 205.658H483.965C493.178 205.668 500.644 213.131 500.655 222.34V506.287C500.644 515.496 493.178 522.958 483.965 522.969H331.035C321.822 522.958 314.356 515.496 314.345 506.287V222.34Z" fill="#3F3D56"/>
<path fill-rule="evenodd" clip-rule="evenodd" d="M386 214.313C386 216.523 387.791 218.313 390 218.313C392.208 218.311 393.998 216.522 394 214.313C394 212.104 392.209 210.313 390 210.313C387.791 210.313 386 212.104 386 214.313ZM387.333 214.313C387.333 212.841 388.527 211.647 390 211.647C391.472 211.648 392.665 212.841 392.667 214.313C392.667 215.786 391.473 216.98 390 216.98C388.527 216.98 387.333 215.786 387.333 214.313Z" fill="#3F3D56"/>
<rect x="400" y="213.313" width="30" height="1" fill="#3F3D56"/>
<path d="M491 223.313V277.313C461.177 277.312 437.001 253.136 437 223.313H491Z" fill="#222F65"/>
<path fill-rule="evenodd" clip-rule="evenodd" d="M325 506.313H491V223.313H325V506.313ZM489.656 504.969H326.344V224.658H489.656V504.969Z" fill="#3F3D56"/>
<path opacity="0.1" d="M451.5 274.313C461.717 274.313 470 266.031 470 255.813C470 245.596 461.717 237.313 451.5 237.313C441.283 237.313 433 245.596 433 255.813C433 266.031 441.283 274.313 451.5 274.313Z" fill="black"/>
<path d="M448.5 276.313C458.717 276.313 467 268.031 467 257.813C467 247.596 458.717 239.313 448.5 239.313C438.283 239.313 430 247.596 430 257.813C430 268.031 438.283 276.313 448.5 276.313Z" fill="#222F65"/>
<rect x="332" y="234.313" width="26" height="9" fill="#3F3D56"/>
<rect x="346" y="324.313" width="26" height="9" fill="#3F3D56"/>
<path fill-rule="evenodd" clip-rule="evenodd" d="M347 359.313H471V342.313H347V359.313ZM469.652 358.006H348.348V343.621H469.652V358.006Z" fill="#3F3D56"/>
<rect x="340" y="397.313" width="123" height="16" fill="#F0F0F0"/>
<rect x="346" y="374.313" width="26" height="9" fill="#3F3D56"/>
<path fill-rule="evenodd" clip-rule="evenodd" d="M347 410.313H471V393.313H347V410.313ZM469.652 409.006H348.348V394.621H469.652V409.006Z" fill="#3F3D56"/>
<path fill-rule="evenodd" clip-rule="evenodd" d="M366 445.313H451V427.313H366V445.313ZM449.651 444.028H367.349V428.599H449.651V444.028Z" fill="#3F3D56"/>
<path d="M466 352.813C466 355.555 464.28 358.002 461.7 358.929C459.121 359.857 456.237 359.067 454.491 356.954L454.484 356.947C452.783 354.884 452.52 351.989 453.82 349.652C455.12 347.316 457.719 346.014 460.368 346.372C463.018 346.73 465.178 348.675 465.812 351.273C465.811 351.275 465.812 351.276 465.813 351.278C465.815 351.279 465.816 351.279 465.818 351.279C465.938 351.782 465.999 352.297 466 352.813V352.813Z" fill="#222F65"/>
<path opacity="0.1" d="M466 352.439C466 355.338 464.235 357.926 461.589 358.907C458.943 359.889 455.985 359.053 454.193 356.818L454.187 356.811C454.064 356.279 454.001 355.735 454 355.188C454 352.289 455.765 349.701 458.411 348.72C461.057 347.738 464.015 348.574 465.807 350.809C465.807 350.811 465.807 350.813 465.809 350.814C465.81 350.815 465.812 350.816 465.813 350.816C465.936 351.348 465.999 351.892 466 352.439V352.439Z" fill="black"/>
<path d="M462.5 362.313C466.09 362.313 469 359.403 469 355.813C469 352.224 466.09 349.313 462.5 349.313C458.91 349.313 456 352.224 456 355.813C456 359.403 458.91 362.313 462.5 362.313Z" fill="#222F65"/>
<path d="M466 402.813C466 405.555 464.28 408.002 461.7 408.929C459.121 409.857 456.237 409.067 454.491 406.954L454.484 406.947C452.783 404.884 452.52 401.989 453.82 399.652C455.12 397.316 457.719 396.014 460.368 396.372C463.018 396.73 465.178 398.675 465.812 401.273C465.811 401.275 465.812 401.276 465.813 401.278C465.815 401.279 465.816 401.279 465.818 401.279C465.938 401.782 465.999 402.297 466 402.813V402.813Z" fill="#222F65"/>
<path opacity="0.1" d="M466 403.439C466 406.338 464.235 408.926 461.589 409.907C458.943 410.889 455.985 410.053 454.193 407.818L454.187 407.811C454.064 407.279 454.001 406.735 454 406.188C454 403.289 455.765 400.701 458.411 399.72C461.057 398.738 464.015 399.574 465.807 401.809C465.807 401.811 465.807 401.813 465.809 401.814C465.81 401.815 465.812 401.816 465.813 401.816C465.936 402.348 465.999 402.892 466 403.439V403.439Z" fill="black"/>
<path d="M462.5 413.313C466.09 413.313 469 410.403 469 406.813C469 403.224 466.09 400.313 462.5 400.313C458.91 400.313 456 403.224 456 406.813C456 410.403 458.91 413.313 462.5 413.313Z" fill="#222F65"/>
<rect x="315" y="141.313" width="35" height="35" fill="#F0F0F0"/>
<path fill-rule="evenodd" clip-rule="evenodd" d="M443 158.313C443 162.732 446.582 166.313 451 166.313C455.416 166.308 458.995 162.73 459 158.313C459 153.895 455.418 150.313 451 150.313C446.582 150.313 443 153.895 443 158.313ZM444.333 158.313C444.333 154.632 447.318 151.647 451 151.647C454.68 151.651 457.662 154.633 457.667 158.313C457.667 161.995 454.682 164.98 451 164.98C447.318 164.98 444.333 161.995 444.333 158.313Z" fill="#3F3D56"/>
<path fill-rule="evenodd" clip-rule="evenodd" d="M257 279.313H274V262.313H257V279.313ZM272.692 278.006H258.308V263.621H272.692V278.006Z" fill="#3F3D56"/>
<path fill-rule="evenodd" clip-rule="evenodd" d="M523 410.313H540V393.313H523V410.313ZM538.692 409.006H524.308V394.621H538.692V409.006Z" fill="#3F3D56"/>
<path d="M195 293.218L197.998 294.843L208.198 300.379L224.665 309.313L234.262 291.384C236.087 287.982 236.494 283.988 235.392 280.284C234.29 276.579 231.77 273.468 228.387 271.637C221.044 267.644 211.981 268.882 205.96 274.701L205.955 274.706C204.511 276.102 203.292 277.717 202.343 279.492L195 293.218Z" fill="#2F2E41"/>
<path d="M240 473.394L238.069 496.274L230.827 497.313L226 471.313L240 473.394V473.394Z" fill="#FFB8B8"/>
<path d="M228.352 497.932C228.352 497.932 237.927 492.8 239.943 496.905C239.943 496.905 238.431 509.222 244.479 510.761C250.527 512.301 253.047 523.078 244.479 524.104C235.912 525.13 230.368 522.051 227.344 522.051C224.32 522.051 227.344 511.274 227.344 511.274L228.352 497.932Z" fill="#2F2E41"/>
<path d="M179 473.394L180.931 496.274L188.173 497.313L193 471.313L179 473.394V473.394Z" fill="#FFB8B8"/>
<path d="M191.648 497.932C191.648 497.932 182.073 492.8 180.057 496.905C180.057 496.905 181.569 509.222 175.521 510.761C169.473 512.301 166.953 523.078 175.521 524.104C184.088 525.13 189.632 522.051 192.656 522.051C195.68 522.051 192.656 511.274 192.656 511.274L191.648 497.932Z" fill="#2F2E41"/>
<path d="M219.5 297.313C226.956 297.313 233 291.269 233 283.813C233 276.358 226.956 270.313 219.5 270.313C212.044 270.313 206 276.358 206 283.813C206 291.269 212.044 297.313 219.5 297.313Z" fill="#FFB8B8"/>
<path d="M179 309.113L189.495 325.808L201.988 324.796L222.477 326.313C222.477 326.313 224.411 322.398 225.991 318.589C226.855 316.686 227.52 314.697 227.974 312.655C228.474 309.113 221.478 305.572 221.478 305.572C221.478 305.572 221.203 305.522 220.743 305.41C220.134 305.264 219.194 305.021 218.165 304.667C215.841 303.867 213.047 302.512 212.483 300.513C211.483 296.972 218.979 291.913 218.979 291.913L209.984 283.313C209.984 283.313 201.993 294.549 192.288 297.109C191.725 297.259 191.155 297.378 190.579 297.463C190.549 297.468 190.524 297.473 190.494 297.478C179.999 298.996 179 309.113 179 309.113Z" fill="#FFB8B8"/>
<path d="M184.264 305.313L178.477 309.852C178.477 309.852 173.741 331.534 175.319 337.585C176.898 343.636 174.793 349.183 174.793 350.192C174.793 351.2 170.058 389.019 170.058 389.019C170.058 389.019 160.587 409.189 170.584 407.172C180.581 405.155 176.898 384.985 176.898 384.985L189 349.687V319.937L184.264 305.313Z" fill="#FFB8B8"/>
<path d="M224.046 309.313L228.137 312.313L230.183 354.309L245.525 390.305C245.525 390.305 256.776 407.803 249.616 408.303C242.456 408.803 237.854 390.305 237.854 390.305L224.046 355.809L222 322.312L224.046 309.313Z" fill="#FFB8B8"/>
<path d="M198.734 311.313C198.734 311.313 208.821 318.391 224.96 315.863C224.96 315.863 229.499 324.963 226.978 330.019C224.456 335.074 230.004 347.207 231.012 348.724C232.021 350.24 243.621 381.584 247.656 415.456C251.69 449.327 262.786 472.582 253.203 475.616C243.621 478.649 223.951 482.188 221.934 479.154C219.917 476.121 216.891 400.795 216.891 400.795L211.343 429.611C211.343 429.611 218.908 478.649 213.36 479.66C207.813 480.671 173.013 477.638 174.021 471.571C175.03 465.505 185.117 433.655 185.117 433.655C185.117 433.655 184.613 369.957 194.7 357.824C194.7 357.824 198.734 351.251 193.187 342.657C187.639 334.063 188.143 320.413 188.143 320.413C188.143 320.413 192.178 320.413 198.734 311.313Z" fill="#2F2E41"/>
<path d="M190 297.666L198.08 316.313L200 315.306L191.642 297.313L190 297.666V297.666Z" fill="#2F2E41"/>
<path d="M218 305.313L224.452 319.313L226 319.177L225.474 316.795L220.636 306.054C220.013 305.908 219.052 305.666 218 305.313Z" fill="#2F2E41"/>
<path d="M197.377 294.337C198.366 297.603 201.167 299.942 204.484 300.273C207.802 300.605 210.989 298.864 212.574 295.855C206.208 287.315 211.668 281.95 222.01 277.891C223.603 274.858 223.251 271.136 221.119 268.473C215.346 267.716 209.548 269.674 205.343 273.802L205.338 273.807L197.991 287.79C196.933 289.798 196.712 292.159 197.377 294.337V294.337Z" fill="#2F2E41"/>
<path d="M212.5 288.313C213.328 288.313 214 286.97 214 285.313C214 283.657 213.328 282.313 212.5 282.313C211.672 282.313 211 283.657 211 285.313C211 286.97 211.672 288.313 212.5 288.313Z" fill="#FFB8B8"/>
<path d="M218 280.435L233.212 287.313L236 281.172C235.52 278.927 234.514 276.828 233.065 275.046L222.595 270.313L218 280.435Z" fill="#2F2E41"/>
<path d="M254.5 415.313C258.09 415.313 261 412.403 261 408.813C261 405.224 258.09 402.313 254.5 402.313C250.91 402.313 248 405.224 248 408.813C248 412.403 250.91 415.313 254.5 415.313Z" fill="#222F65"/>
<path d="M38.5 455.313C40.9853 455.313 43 453.299 43 450.813C43 448.328 40.9853 446.313 38.5 446.313C36.0147 446.313 34 448.328 34 450.813C34 453.299 36.0147 455.313 38.5 455.313Z" fill="#FF6584"/>
<rect x="59" y="474.313" width="1" height="50" fill="#3F3D56"/>
<path d="M60 480.313C63.866 480.313 67 477.179 67 473.313C67 469.447 63.866 466.313 60 466.313C56.134 466.313 53 469.447 53 473.313C53 477.179 56.134 480.313 60 480.313Z" fill="#3F3D56"/>
<path d="M59 504.313C59 504.313 58.0233 483.041 38 485.513Z" fill="#3F3D56"/>
</svg>
